<svg xmlns="http://www.w3.org/2000/svg" width="99" height="20" viewBox="0 0 99 20" fill="none">
  <g clip-path="url(#clip0_2148_10785)">
    <path d="M0.5 1.27051H4.19533V16.9055H13.7067V19.998H0.5V1.27051Z" fill="white"/>
    <path d="M15.5533 16.7905V1.27051H19.2487V15.533L20.6354 16.898H25.9612L27.3479 15.533V1.27051H31.0433V16.7905L27.7822 20.0005H18.8144L15.5533 16.7905Z" fill="white"/>
    <path d="M34.7462 1.27051H38.1698L43.8207 13.3605H43.874L49.5555 1.27051H52.979V20.0005H49.4183V8.59801H49.365L44.989 17.3705H42.7058L38.3577 8.59801H38.3044V20.0005H34.7437V1.27051H34.7462Z" fill="white"/>
    <path d="M56.6615 7.85498H60.3568V19.9975H56.6615V7.85498Z" fill="white"/>
    <path d="M64.0549 1.27539H67.3693L75.847 13.9804H75.9003V1.27539H79.461V20.0004H76.1467L67.669 7.32289H67.6157V20.0004H64.0549V1.27539Z" fill="white"/>
    <path d="M88.2685 1.27539H91.6388L98.5951 19.9979H94.8465L93.2972 15.8529H86.6126L85.0634 19.9979H81.3147L88.2685 1.27539ZM92.4794 12.8579L89.9524 5.74289H89.899L87.4533 12.8579H92.4794Z" fill="white"/>
    <path d="M59.0569 0H57.9648C57.9292 0 57.8962 0.02 57.8784 0.0525L56.1158 3.37C56.1006 3.4 56.1006 3.4375 56.1209 3.4675L56.9692 4.7275C56.987 4.755 57.0175 4.77 57.0505 4.77H59.9737C60.0067 4.77 60.0372 4.755 60.055 4.7275L60.9033 3.4675C60.9236 3.4375 60.9236 3.4025 60.9083 3.37L59.1432 0.0525C59.1254 0.02 59.0924 0 59.0569 0Z" fill="url(#paint0_radial_2148_10785)"/>
  </g>
  <defs>
    <radialGradient id="paint0_radial_2148_10785" cx="0" cy="0" r="1" gradientUnits="userSpaceOnUse" gradientTransform="translate(58.1756 5.0575) scale(5.55189 5.465)">
      <stop stop-color="#F15A24"/>
      <stop offset="0.52" stop-color="#FBAE17"/>
      <stop offset="1" stop-color="#FBAE17"/>
    </radialGradient>
    <clipPath id="clip0_2148_10785">
      <rect width="98.0952" height="20" fill="white" transform="translate(0.5)"/>
    </clipPath>
  </defs>
</svg>