<svg xmlns="http://www.w3.org/2000/svg" width="83" height="48" viewBox="0 0 83 48" fill="none">
  <g clip-path="url(#clip0_3553_14099)">
    <path d="M52.2914 22.3076C50.7743 21.9114 48.5842 21.1965 46.6143 19.3012C44.7219 17.3283 44.0082 15.1348 43.6126 13.6152C43.6126 13.6152 42.9397 17.0628 40.6231 19.293C38.6492 21.1965 36.4509 21.9155 34.9297 22.3117C34.9297 22.3117 38.3719 22.9857 40.5987 25.3058C42.4992 27.2828 43.217 29.4845 43.6126 31.0081C44.0082 29.4845 44.726 27.2869 46.6265 25.3058C48.8533 22.9898 52.2955 22.3117 52.2955 22.3117L52.2914 22.3076Z" fill="#2E2E2E"/>
    <path d="M44.0572 1.45898H43.1641V20.9841H44.0572V1.45898Z" fill="#2E2E2E"/>
    <path d="M44.0572 23.6348H43.1641V43.1599H44.0572V23.6348Z" fill="#2E2E2E"/>
    <path d="M64.4303 21.8633H44.9355V22.7578H64.4303V21.8633Z" fill="#2E2E2E"/>
    <path d="M42.2877 21.8633H22.793V22.7578H42.2877V21.8633Z" fill="#2E2E2E"/>
    <path d="M34.8257 34.3157C34.4464 34.2176 33.8999 34.0379 33.4065 33.5641C32.9334 33.0698 32.7539 32.5225 32.656 32.1426C32.656 32.1426 32.4888 33.0045 31.9097 33.56C31.4162 34.0338 30.8656 34.2136 30.4863 34.3157C30.4863 34.3157 31.3469 34.4831 31.9015 35.0632C32.3746 35.5574 32.5541 36.1089 32.656 36.4888C32.7539 36.1089 32.9334 35.5574 33.4105 35.0632C33.9652 34.4831 34.8257 34.3157 34.8257 34.3157Z" fill="#2E2E2E"/>
    <path d="M33.1041 29.1035H32.2109V33.9848H33.1041V29.1035Z" fill="#2E2E2E"/>
    <path d="M33.1041 34.6506H32.2109V39.5319H33.1041V34.6506Z" fill="#2E2E2E"/>
    <path d="M37.8639 33.8711H32.9902V34.7657H37.8639V33.8711Z" fill="#2E2E2E"/>
    <path d="M32.3249 33.8711H27.4512V34.7657H32.3249V33.8711Z" fill="#2E2E2E"/>
    <path d="M57.9457 4.40004C59.7442 3.66069 61.5795 3.01939 63.427 2.40259C65.2827 1.81847 67.1628 1.29562 69.0715 0.866719C70.9761 0.433735 72.9174 0.131463 74.8914 0.0252591C75.8784 -0.0196733 76.8735 -0.00741898 77.8727 0.131463C78.8638 0.274429 79.8874 0.5236 80.7928 1.13631C81.2415 1.44267 81.6411 1.85932 81.9022 2.36174C82.1673 2.86417 82.2814 3.42786 82.2814 3.97114C82.2814 5.06177 81.9062 6.05028 81.4658 6.94893C80.544 8.74214 79.3001 10.2903 77.9624 11.7199C76.6206 13.1496 75.1891 14.4812 73.7087 15.7475C72.2078 16.9933 70.6784 18.1943 69.0838 19.3135C70.552 18.035 72.0202 16.7687 73.415 15.4207C74.8302 14.0973 76.1965 12.7207 77.4485 11.2624C78.6843 9.796 79.8915 8.27239 80.7031 6.57721C81.0987 5.73575 81.4168 4.84527 81.4046 3.97931C81.4087 3.11334 81.0008 2.3454 80.279 1.87157C79.5693 1.3814 78.6598 1.13631 77.7422 0.997432C76.8205 0.85855 75.8661 0.846296 74.9159 0.870804C73.0072 0.919821 71.0985 1.20984 69.198 1.5407C67.2974 1.87974 65.4132 2.32906 63.5412 2.82332C61.6611 3.29715 59.8013 3.85268 57.9375 4.40412L57.9457 4.40004Z" fill="#2E2E2E"/>
    <path d="M25.5432 43.1641C23.7935 43.9075 22.0113 44.557 20.2127 45.186C18.4101 45.7906 16.5829 46.3298 14.7354 46.7995C12.8879 47.2733 11.0037 47.6287 9.09907 47.8534C8.14473 47.9596 7.17815 48.0127 6.20749 48.0004C5.23683 47.9841 4.25394 47.9065 3.28328 47.6532C2.32894 47.3959 1.31749 46.9547 0.644559 46.0602C0.485501 45.8396 0.342757 45.6027 0.257111 45.3372L0.110289 44.9532C0.0817401 44.8225 0.0654265 44.6877 0.0450345 44.5529C0.0287209 44.4181 0.000172146 44.2874 -0.00390625 44.1526L0.0124073 43.7604C0.0205641 43.6297 0.0205641 43.4949 0.0368777 43.3683L0.118446 42.9925C0.338679 41.9958 0.762832 41.089 1.26855 40.2557C1.75388 39.4061 2.34525 38.6422 2.94477 37.8907C5.39589 34.9251 8.31194 32.4416 11.3422 30.1582C9.9433 31.4449 8.54441 32.7234 7.22709 34.0837C5.88938 35.4194 4.61692 36.8204 3.48312 38.3155C2.93662 39.0752 2.39419 39.8391 1.94557 40.6479C1.48063 41.4444 1.11765 42.2981 0.94636 43.16C0.766911 44.0178 0.86887 44.8797 1.34196 45.5332C1.82729 46.1786 2.65521 46.5626 3.51167 46.7873C5.25315 47.2407 7.15776 47.1671 9.01343 47.0119C10.8773 46.8444 12.7329 46.5054 14.5845 46.1337C16.432 45.7497 18.2673 45.2841 20.0863 44.7694C21.9175 44.2833 23.7242 43.7155 25.5432 43.1641Z" fill="#2E2E2E"/>
  </g>
  <defs>
    <clipPath id="clip0_3553_14099">
      <rect width="82.2857" height="48" fill="white"/>
    </clipPath>
  </defs>
</svg>