<svg xmlns="http://www.w3.org/2000/svg" width="48" height="48" viewBox="0 0 48 48" fill="none">
  <path fill-rule="evenodd" clip-rule="evenodd" d="M22.7374 28.0972L12.6152 35.3858L19.9081 25.2634C8.6031 25.1594 0 24.6322 0 24C0 23.3653 8.67008 22.8364 20.04 22.7354L15.5942 16.174L22.735 20.177C22.833 8.7398 23.3636 0 24.0008 0C24.6354 0 25.1606 8.60144 25.2643 19.9048L39.9796 9.30615L28.2924 22.7385C39.4985 22.8468 48 23.3715 48 24C48 24.637 39.3322 25.1639 27.9645 25.2646L35.6303 36.5795L25.2639 28.1267C25.1591 39.4145 24.6324 48 24.0008 48C23.3687 48 22.8415 39.3996 22.7374 28.0972Z" fill="#2E2E2E"/>
</svg>