<svg xmlns="http://www.w3.org/2000/svg" width="51" height="48" viewBox="0 0 51 48" fill="none">
  <path d="M32.091 18.332C32.091 18.332 26.0545 18.332 21.7775 16.4381C20.5261 15.8061 18.5021 14.3322 17.3557 11.126C16.1001 7.61541 16.0455 0 16.0455 0C16.0455 0 15.9909 7.61541 14.7353 11.126C13.5889 14.3301 11.5648 15.804 10.3135 16.4381C6.03648 18.3299 0 18.332 0 18.332C0 18.332 6.03648 18.332 10.3135 20.2259C11.5648 20.8579 13.5889 22.3318 14.7353 25.5359C15.9909 29.0465 16.0455 36.6619 16.0455 36.6619C16.0455 36.6619 16.1001 29.0465 17.3557 25.5359C18.5021 22.3318 20.5261 20.8579 21.7775 20.2259C26.0545 18.3341 32.091 18.332 32.091 18.332Z" fill="#2E2E2E"/>
  <path d="M45 35.5007C45 35.5007 41.2379 35.5007 38.5724 34.3125C37.7925 33.916 36.531 32.9914 35.8165 30.98C35.034 28.7776 35 24 35 24C35 24 34.966 28.7776 34.1835 30.98C33.469 32.99 32.2075 33.9147 31.4276 34.3125C28.7621 35.4993 25 35.5007 25 35.5007C25 35.5007 28.7621 35.5007 31.4276 36.6888C32.2075 37.0853 33.469 38.01 34.1835 40.02C34.966 42.2224 35 47 35 47C35 47 35.034 42.2224 35.8165 40.02C36.531 38.01 37.7925 37.0853 38.5724 36.6888C41.2379 35.502 45 35.5007 45 35.5007Z" fill="#2E2E2E"/>
</svg>