<svg xmlns="http://www.w3.org/2000/svg" width="62" height="48" viewBox="0 0 62 48" fill="none">
  <g clip-path="url(#clip0_3129_50352)">
    <path d="M41.2035 18.4153C40.8256 19.8648 40.1386 21.958 38.326 23.8421C36.4362 25.6493 34.3367 26.3341 32.8828 26.711C32.8828 26.711 36.1796 27.3546 38.315 29.5661C40.1358 31.4529 40.8256 33.5516 41.2035 35.0039C41.2035 35.0039 41.8491 31.717 44.0672 29.5881C45.9598 27.7727 48.0648 27.085 49.5215 26.7082C48.0648 26.3314 45.9598 25.6438 44.0672 23.8284C41.8491 21.7022 41.2035 18.4125 41.2035 18.4125L41.2035 18.4153Z" fill="#2E2E2E"/>
    <path d="M21.252 26.4074L21.252 27.0098L39.9349 27.0098L39.9349 26.4074L21.252 26.4074Z" fill="#2E2E2E"/>
    <path d="M42.4766 26.4074L42.4766 27.0098L61.1595 27.0098L61.1595 26.4074L42.4766 26.4074Z" fill="#2E2E2E"/>
    <path d="M40.9023 6.81462L40.9023 25.4414L41.5065 25.4414L41.5065 6.81462L40.9023 6.81462Z" fill="#2E2E2E"/>
    <path d="M40.9023 27.9728L40.9023 46.5996L41.5065 46.5996L41.5065 27.9728L40.9023 27.9728Z" fill="#2E2E2E"/>
    <path d="M15.2804 8.88111C14.9907 9.99233 14.4665 11.5932 13.0788 13.0372C11.6304 14.4207 10.0247 14.9461 8.91016 15.2321C8.91016 15.2321 11.4373 15.7245 13.0705 17.4188C14.4665 18.8656 14.9934 20.472 15.2831 21.5859C15.2831 21.5859 15.7769 19.0664 17.4764 17.4381C18.9276 16.0463 20.5387 15.521 21.6561 15.2321C20.5415 14.9433 18.9276 14.418 17.4764 13.0262C15.7769 11.3979 15.2831 8.87836 15.2831 8.87836L15.2804 8.88111Z" fill="#2E2E2E"/>
    <path d="M-2.63306e-08 14.9328L0 15.5352L14.3102 15.5352L14.3102 14.9328L-2.63306e-08 14.9328Z" fill="#2E2E2E"/>
    <path d="M16.2559 14.9328L16.2559 15.5352L30.566 15.5352L30.566 14.9328L16.2559 14.9328Z" fill="#2E2E2E"/>
    <path d="M14.9805 -0.00347805L14.9805 14.2637L15.5847 14.2637L15.5847 -0.00347808L14.9805 -0.00347805Z" fill="#2E2E2E"/>
    <path d="M14.9805 16.2036L14.9805 30.4707L15.5847 30.4707L15.5847 16.2036L14.9805 16.2036Z" fill="#2E2E2E"/>
    <path d="M21.1073 35.649C20.9418 36.2844 20.6411 37.2004 19.8465 38.0255C19.0189 38.8177 18.0974 39.1175 17.4629 39.2825C17.4629 39.2825 18.9085 39.5658 19.8438 40.534C20.6411 41.3619 20.9446 42.2806 21.1101 42.916C21.1101 42.916 21.3943 41.4747 22.3654 40.5423C23.1958 39.7474 24.1173 39.4448 24.7545 39.2798C24.1173 39.1147 23.193 38.8149 22.3654 38.0173C21.3943 37.0848 21.1101 35.6435 21.1101 35.6435L21.1073 35.649Z" fill="#2E2E2E"/>
    <path d="M12.3652 38.9837L12.3652 39.5861L20.5508 39.5861L20.5508 38.9837L12.3652 38.9837Z" fill="#2E2E2E"/>
    <path d="M21.666 38.9837L21.666 39.5861L29.8515 39.5861L29.8515 38.9837L21.666 38.9837Z" fill="#2E2E2E"/>
    <path d="M20.8066 30.5676L20.8066 38.7285L21.4108 38.7285L21.4108 30.5676L20.8066 30.5676Z" fill="#2E2E2E"/>
    <path d="M20.8066 39.8391L20.8066 48L21.4108 48L21.4108 39.8391L20.8066 39.8391Z" fill="#2E2E2E"/>
  </g>
  <defs>
    <clipPath id="clip0_3129_50352">
      <rect width="48" height="61.1556" fill="white" transform="translate(0 48) rotate(-90)"/>
    </clipPath>
  </defs>
</svg>